# xmcd
#
# Track frame offsets: 
#        150
#        19738
#        36650
#        52405
#        74941
#        89179
#        103110
#        119776
#
# Disc length: 1798 seconds
#
# Revision: 0
# Processed by: cddbd v1.5.2PL0 Copyright (c) Steve Scherf et al.
# Submitted via: ExactAudioCopy v1.3
#
DISCID=8b070408
DTITLE=Malacara and Wilson Band - Miles Down Blues
DYEAR=2019
DGENRE=Blues
TTITLE0=Plastic Jesus
TTITLE1=Bye Bye (She Said)
TTITLE2=Miles Down
TTITLE3=Nothing Is Real
TTITLE4=No One Knows
TTITLE5=Gushi's Song
TTITLE6=Honest Man
TTITLE7=L'appel Du Vide
EXTD=
EXTT0=
EXTT1=
EXTT2=
EXTT3=
EXTT4=
EXTT5=
EXTT6=
EXTT7=
PLAYORDER=
